<mxfile host="app.diagrams.net" modified="2023-09-23T17:01:20.075Z" agent="Mozilla/5.0 (X11; Ubuntu; Linux x86_64; rv:109.0) Gecko/20100101 Firefox/117.0" etag="dxUDTj5laW2jRvDaQ2un" version="21.8.1" type="device">
  <diagram name="monolithic_architecture" id="tcR9K2eK1gcY0cfp9r5R">
    <mxGraphModel dx="1434" dy="795" grid="1" gridSize="10" guides="1" tooltips="1" connect="1" arrows="1" fold="1" page="1" pageScale="1" pageWidth="827" pageHeight="1169" math="0" shadow="0">
      <root>
        <mxCell id="0" />
        <mxCell id="1" parent="0" />
        <mxCell id="KwDpapyeBFNQMWxdjsSe-14" value="&lt;div&gt;SYSTEM&lt;/div&gt;" style="rounded=1;whiteSpace=wrap;html=1;fillColor=#bac8d3;strokeColor=#23445d;align=center;verticalAlign=top;" vertex="1" parent="1">
          <mxGeometry x="69.18" y="195" width="460" height="270" as="geometry" />
        </mxCell>
        <mxCell id="KwDpapyeBFNQMWxdjsSe-3" value="BUSINESS LOGIC" style="ellipse;whiteSpace=wrap;html=1;aspect=fixed;fillColor=#0050ef;strokeColor=#001DBC;fontColor=#ffffff;" vertex="1" parent="1">
          <mxGeometry x="300" y="290" width="100" height="100" as="geometry" />
        </mxCell>
        <mxCell id="KwDpapyeBFNQMWxdjsSe-1" value="&lt;div&gt;USER &lt;br&gt;&lt;/div&gt;&lt;div&gt;INTERFACES&lt;br&gt;&lt;/div&gt;" style="ellipse;whiteSpace=wrap;html=1;aspect=fixed;fillColor=#1ba1e2;strokeColor=#006EAF;fontColor=#ffffff;" vertex="1" parent="1">
          <mxGeometry x="240" y="230" width="100" height="100" as="geometry" />
        </mxCell>
        <mxCell id="KwDpapyeBFNQMWxdjsSe-4" value="PERSISTENCE &lt;br&gt;DATA" style="ellipse;whiteSpace=wrap;html=1;aspect=fixed;fillColor=#fa6800;strokeColor=#C73500;fontColor=#000000;" vertex="1" parent="1">
          <mxGeometry x="240" y="330" width="100" height="100" as="geometry" />
        </mxCell>
        <mxCell id="KwDpapyeBFNQMWxdjsSe-11" value="DATABASE" style="strokeWidth=2;html=1;shape=mxgraph.flowchart.database;whiteSpace=wrap;fillColor=#e6d0de;strokeColor=#996185;gradientColor=#d5739d;verticalAlign=top;labelPosition=center;verticalLabelPosition=bottom;align=center;" vertex="1" parent="1">
          <mxGeometry x="269.18" y="596" width="60" height="60" as="geometry" />
        </mxCell>
        <mxCell id="KwDpapyeBFNQMWxdjsSe-15" value="" style="shape=flexArrow;endArrow=classic;startArrow=classic;html=1;rounded=0;fillColor=#d80073;strokeColor=#A50040;" edge="1" parent="1">
          <mxGeometry width="100" height="100" relative="1" as="geometry">
            <mxPoint x="298.68" y="580" as="sourcePoint" />
            <mxPoint x="298.68" y="480" as="targetPoint" />
          </mxGeometry>
        </mxCell>
        <mxCell id="KwDpapyeBFNQMWxdjsSe-16" value="Monolithic Architecture" style="text;html=1;strokeColor=none;fillColor=none;align=center;verticalAlign=middle;whiteSpace=wrap;rounded=0;fontSize=24;fontColor=#B5739D;" vertex="1" parent="1">
          <mxGeometry x="180" y="130" width="250" height="40" as="geometry" />
        </mxCell>
      </root>
    </mxGraphModel>
  </diagram>
</mxfile>
